<svg width="192" height="192" viewBox="-4 -4 200 200" xmlns="http://www.w3.org/2000/svg">
<circle cx="96" cy="95" r="100" fill="#f5f2ed"/>
<path d="M191.781 96.2747C192.599 105.068 189.939 117.28 187.029 125.617C178.748 149.658 161.175 169.373 138.244 180.348C112.953 192.446 87.143 192.781 60.9922 183.533L54.5613 180.782C60.7324 167.362 67.5512 153.657 74.0108 140.327C113.353 125.867 152.608 111.182 191.781 96.2747Z" fill="black"/>
<path d="M89.7472 0.133071L96.9787 0C104.454 17.9898 114.146 48.7992 119.991 67.9048C109.987 76.9118 101.694 83.9829 91.1523 92.1716C82.678 87.3551 67.1578 80.4852 58.0553 76.0878C41.9099 68.5988 25.8482 60.9311 9.87207 53.0866C26.3928 21.4344 54.2778 3.15854 89.7472 0.133071Z" fill="black"/>
<path d="M6.73908 60.0459C14.1867 62.9733 27.2284 69.7483 34.8346 73.3891L86.4749 97.9577C78.9099 115.331 67.5593 136.962 59.0626 154.335C55.242 162.225 51.7025 169.403 47.4953 177.118C30.5687 167.076 17.0668 152.156 8.75615 134.311C-2.64316 109.751 -2.48016 85.1249 6.73908 60.0459Z" fill="black"/>
<path d="M105.328 0.247375C124.468 2.13338 142.622 9.6574 157.485 21.8667C178.361 38.882 189.34 61.7645 192 88.2847C188.903 89.7384 182.52 91.9611 179.092 93.2561C167.133 98.162 153.313 102.947 141.086 107.49C129.908 71.3413 116.818 36.0889 105.328 0.247375Z" fill="black"/>
<path d="M122.233 75.3276C124.55 77.8489 132.818 104.971 134.41 109.98C120.291 115.719 103.661 121.465 89.1664 126.906L78.675 130.738C81.2229 125.413 92.1826 101.38 95.0864 98.5712C100.938 92.9044 115.07 81.6272 122.233 75.3276Z" fill="black"/>
</svg>
